<svg width="1200" height="630" viewBox="0 0 1200 630" fill="none" xmlns="http://www.w3.org/2000/svg">
  <defs>
    <linearGradient id="bg" x1="140" y1="80" x2="1040" y2="550" gradientUnits="userSpaceOnUse">
      <stop stop-color="#0F172A"/>
      <stop offset="1" stop-color="#020617"/>
    </linearGradient>
    <linearGradient id="accent" x1="280" y1="110" x2="885" y2="490" gradientUnits="userSpaceOnUse">
      <stop stop-color="#10B981"/>
      <stop offset="1" stop-color="#F97316"/>
    </linearGradient>
    <filter id="blur" x="0" y="0" width="1200" height="630" filterUnits="userSpaceOnUse">
      <feGaussianBlur stdDeviation="55"/>
    </filter>
  </defs>

  <rect width="1200" height="630" rx="36" fill="url(#bg)"/>
  <g opacity="0.75" filter="url(#blur)">
    <circle cx="245" cy="170" r="120" fill="#10B981"/>
    <circle cx="980" cy="455" r="145" fill="#F97316"/>
  </g>

  <rect x="86" y="76" width="1028" height="478" rx="34" fill="#0B1220" stroke="white" stroke-opacity="0.08"/>
  <rect x="134" y="124" width="420" height="318" rx="26" fill="#111C2E" stroke="white" stroke-opacity="0.08"/>
  <rect x="162" y="154" width="170" height="104" rx="22" fill="#162338"/>
  <text x="190" y="198" fill="#9CA3AF" font-family="Inter, Arial, sans-serif" font-size="18">Aylık gider</text>
  <text x="190" y="238" fill="#F8FAFC" font-family="Inter, Arial, sans-serif" font-size="34" font-weight="700">₺12.480</text>
  <rect x="350" y="154" width="170" height="104" rx="22" fill="#162338"/>
  <text x="378" y="198" fill="#9CA3AF" font-family="Inter, Arial, sans-serif" font-size="18">Yaklaşan bakım</text>
  <text x="378" y="238" fill="#F8FAFC" font-family="Inter, Arial, sans-serif" font-size="28" font-weight="700">15 gün</text>

  <rect x="162" y="284" width="358" height="126" rx="24" fill="#162338"/>
  <rect x="190" y="314" width="140" height="18" rx="9" fill="#10B981" fill-opacity="0.25"/>
  <rect x="190" y="348" width="246" height="22" rx="11" fill="url(#accent)"/>
  <rect x="190" y="382" width="205" height="12" rx="6" fill="#334155"/>

  <rect x="598" y="124" width="468" height="318" rx="28" fill="#0F172A" stroke="white" stroke-opacity="0.08"/>
  <rect x="632" y="160" width="400" height="74" rx="22" fill="#162338"/>
  <circle cx="680" cy="197" r="24" fill="url(#accent)"/>
  <path d="M667 201C667 190.507 675.507 182 686 182H692.5C702.993 182 711.5 190.507 711.5 201V211H667V201Z" fill="white" fill-opacity="0.88"/>
  <text x="726" y="191" fill="#9CA3AF" font-family="Inter, Arial, sans-serif" font-size="16">Arabam+</text>
  <text x="726" y="216" fill="#F8FAFC" font-family="Inter, Arial, sans-serif" font-size="20" font-weight="700">Yakıt, bakım ve gider takibi</text>

  <rect x="632" y="258" width="188" height="70" rx="20" fill="#162338"/>
  <rect x="844" y="258" width="188" height="70" rx="20" fill="#162338"/>
  <text x="662" y="299" fill="#F8FAFC" font-family="Inter, Arial, sans-serif" font-size="20" font-weight="700">Yakıt günlüğü</text>
  <text x="874" y="299" fill="#F8FAFC" font-family="Inter, Arial, sans-serif" font-size="20" font-weight="700">Servis takvimi</text>
  <rect x="632" y="350" width="400" height="56" rx="18" fill="#162338"/>
  <text x="664" y="385" fill="#CBD5E1" font-family="Inter, Arial, sans-serif" font-size="18">Çok yakında App Store ve Google Play'de</text>

  <text x="136" y="520" fill="#10B981" font-family="Inter, Arial, sans-serif" font-size="18" font-weight="700" letter-spacing="2">COMING SOON</text>
  <text x="136" y="566" fill="#F8FAFC" font-family="Space Grotesk, Inter, Arial, sans-serif" font-size="48" font-weight="700">Arabam+</text>
  <text x="360" y="566" fill="#94A3B8" font-family="Inter, Arial, sans-serif" font-size="22">Aracının yakıt, bakım ve tüm masraflarını tek akışta yönet.</text>
</svg>
